<svg width="140" height="137" viewBox="0 0 140 137" fill="none" xmlns="http://www.w3.org/2000/svg">
<rect width="137" height="137" rx="30" fill="#093C5D"/>
<path d="M66.8484 45.1147C67.7471 45.7568 68.9962 45.5488 69.6383 44.6502L76.4134 35.1692C77.0556 34.2705 78.3047 34.0625 79.2034 34.7047L95.8728 46.6156C96.7715 47.2578 98.0206 47.0498 98.6628 46.1512L107.177 34.2365C107.819 33.3379 109.068 33.1299 109.967 33.772L127.111 46.0218C128.01 46.664 128.218 47.9131 127.576 48.8119L91.4069 99.4304C90.7647 100.329 89.5156 100.537 88.6169 99.8949L71.9457 87.9831C71.0469 87.3409 69.7978 87.5489 69.1556 88.4476L60.6423 100.363C60.0001 101.262 58.7509 101.47 57.8522 100.827L41.1254 88.8748C40.2267 88.2326 38.9774 88.4406 38.3353 89.3394L31.5612 98.8208C30.919 99.7196 29.6698 99.9276 28.7711 99.2855L11.6273 87.0358C10.7286 86.3936 10.5206 85.1445 11.1628 84.2458L47.3314 33.6273C47.9736 32.7286 49.2227 32.5206 50.1214 33.1627L66.8484 45.1147Z" fill="#95D3ED"/>
<g clip-path="url(#clip0_2_21)">
<path d="M90.1379 81.2069H111.862V98.7931H90.1379V81.2069Z" fill="#093C5D"/>
<path d="M101 75C92.72 75 86 81.72 86 90C86 98.28 92.72 105 101 105C109.28 105 116 98.28 116 90C116 81.72 109.28 75 101 75ZM98 97.5L90.5 90L92.615 87.885L98 93.255L109.385 81.87L111.5 84L98 97.5Z" fill="#093C5D"/>
<path d="M94.1724 83.7586H110.828V97.2414H94.1724V83.7586Z" fill="#093C5D"/>
<path d="M102.5 79C96.152 79 91 84.152 91 90.5C91 96.848 96.152 102 102.5 102C108.848 102 114 96.848 114 90.5C114 84.152 108.848 79 102.5 79ZM100.2 96.25L94.45 90.5L96.0715 88.8785L100.2 92.9955L108.928 84.267L110.55 85.9L100.2 96.25Z" fill="#5DF8D8"/>
</g>
<defs>
<clipPath id="clip0_2_21">
<rect width="96" height="96" fill="white" transform="translate(44 21)"/>
</clipPath>
</defs>
</svg>
